<?xml version="1.0" ?><svg style="enable-background:new 0 0 32 32;" version="1.1" viewBox="0 0 32 32" xml:space="preserve" xmlns="http://www.w3.org/2000/svg" xmlns:xlink="http://www.w3.org/1999/xlink"><style type="text/css">
	.st0{display:none;}
	.st1{display:inline;}
	.st2{fill:#0097E2;}
	.st3{fill:#3A3A3A;}
</style><g class="st0" id="grid"/><g id="icon"><g><g><path class="st2" d="M16,23c-0.26,0-0.51-0.1-0.71-0.29l-5-5c-0.39-0.39-0.39-1.02,0-1.41s1.02-0.39,1.41,0L16,20.59l4.29-4.29     c0.39-0.39,1.02-0.39,1.41,0s0.39,1.02,0,1.41l-5,5C16.51,22.9,16.26,23,16,23z"/></g></g><g><g><path class="st2" d="M16,17c-0.26,0-0.51-0.1-0.71-0.29l-5-5c-0.39-0.39-0.39-1.02,0-1.41s1.02-0.39,1.41,0L16,14.59l4.29-4.29     c0.39-0.39,1.02-0.39,1.41,0s0.39,1.02,0,1.41l-5,5C16.51,16.9,16.26,17,16,17z"/></g></g></g></svg>